#!OML:ASF H:\Terrain\Patient Classification 1\Terrain2\Thursday\justin.ASF
:FULLY-SPECIFIED
:DEGREES
3492
root -2.03767 23.6422 -3.03831 354.914 -329.369 -724.592
lowerback 6.23585 -0.603896 2.03272
upperback 1.41995 -0.558958 3.7075
thorax -2.01559 -0.272031 2.72583
lowerneck -11.8487 -2.07822 -9.72869
upperneck 40.3115 -0.49898 2.20558
head 16.6229 -1.18722 2.70611
rclavicle -9.74045e-015 -6.36111e-015
rhumerus -31.08 -17.8741 -70.4509
rradius 40.2266
rwrist -15.9489
rhand -24.2988 13.3208
rfingers 7.12502
rthumb 2.18882 -16.6477
lclavicle -9.74045e-015 -6.36111e-015
lhumerus -36.6705 0.827292 87.273
lradius 39.9249
lwrist 4.60074
lhand -14.812 20.3352
lfingers 7.12502
lthumb 11.3461 50.0083
rfemur -10.439 -15.7698 24.1259
rtibia 37.8325
rfoot -19.1051 -14.8232
rtoes 5.91502
lfemur -6.33079 4.43855 -17.8814
ltibia 28.6227
lfoot -16.2443 -3.10673
ltoes 14.7351
3493
root -2.01541 23.6306 -3.03254 354.856 -328.438 -724.183
lowerback 6.49878 -0.482822 1.82647
upperback 1.40133 -0.405023 3.50704
thorax -2.18646 -0.194919 2.62522
lowerneck -11.5713 -2.0573 -9.68813
upperneck 40.2482 -0.471578 2.1763
head 16.5162 -1.16118 2.69007
rclavicle 4.02539e-014 -3.49861e-014
rhumerus -31.6488 -18.1726 -70.3142
rradius 39.2617
rwrist -15.4742
rhand -24.5737 13.9071
rfingers 7.12502
rthumb 1.92334 -16.064
lclavicle 4.02539e-014 -3.49861e-014
lhumerus -36.9007 0.580576 87.25
lradius 40.3239
lwrist 4.76057
lhand -14.2112 20.2444
lfingers 7.12502
lthumb 11.9255 49.8848
rfemur -10.4321 -16.0456 23.4529
rtibia 38.5186
rfoot -18.9235 -15.1506
rtoes 5.05839
lfemur -6.02192 4.3073 -18.3578
ltibia 28.441
lfoot -16.0799 -3.79854
ltoes 14.9581
3494
root -1.99325 23.6221 -3.02781 354.754 -327.52 -724.112
lowerback 6.49917 -0.465796 1.94914
upperback 1.57076 -0.381049 3.43946
thorax -2.01392 -0.183085 2.48252
lowerneck -11.7808 -2.02092 -9.96417
upperneck 40.2379 -0.335576 2.30418
head 16.5567 -1.12329 2.82208
rclavicle -8.98507e-014 -2.46493e-014
rhumerus -31.601 -18.2873 -70.339
rradius 38.26
rwrist -15.2724
rhand -24.5374 14.0988
rfingers 7.12502
rthumb 1.95837 -15.8719
lclavicle -8.98507e-014 -2.46493e-014
lhumerus -36.7146 0.701188 87.2799
lradius 40.6262
lwrist 5.06158
lhand -14.1237 20.4334
lfingers 7.12502
lthumb 12.0098 50.0688
rfemur -10.5522 -16.3329 23.1306
rtibia 39.1976
rfoot -18.7367 -15.4763
rtoes 3.72036
lfemur -5.8946 4.00551 -18.5486
ltibia 28.341
lfoot -16.066 -4.3458
ltoes 14.9251
3495
root -1.97687 23.6138 -3.01957 354.639 -326.48 -724.167
lowerback 6.43522 -0.560081 2.08558
upperback 1.73848 -0.505443 3.42407
thorax -1.80304 -0.244549 2.39747
lowerneck -12.1827 -1.94498 -10.1503
upperneck 40.4073 -0.110679 2.37321
head 16.7342 -1.05056 2.93396
rclavicle -7.53891e-014 -5.56597e-015
rhumerus -31.6254 -18.442 -70.3934
rradius 37.6506
rwrist -15.1008
rhand -24.298 13.2789
rfingers 7.12502
rthumb 2.1896 -16.6896
lclavicle -7.53891e-014 -5.56597e-015
lhumerus -36.3273 1.23429 87.1662
lradius 40.699
lwrist 4.93468
lhand -14.0141 20.6435
lfingers 7.12502
lthumb 12.1155 50.2727
rfemur -10.7157 -16.5235 22.971
rtibia 39.9314
rfoot -18.8392 -15.7997
rtoes 3.91337
lfemur -5.85485 3.82291 -18.5697
ltibia 28.2421
lfoot -15.9858 -5.24057
ltoes 14.9147
3496
root -1.9637 23.6147 -3.0088 354.524 -325.435 -724.086
lowerback 6.49547 -0.528865 1.97193
upperback 1.78125 -0.470827 3.3737
thorax -1.79297 -0.226728 2.40682
lowerneck -12.258 -1.88867 -10.0828
upperneck 40.596 0.00769971 2.36495
head 16.8458 -0.989741 2.94797
rclavicle 5.61567e-015 -1.19271e-014
rhumerus -32.1529 -18.9942 -70.1892
rradius 37.1246
rwrist -14.6838
rhand -23.9527 12.9174
rfingers 7.12502
rthumb 2.52304 -17.0474
lclavicle 5.61567e-015 -1.19271e-014
lhumerus -36.3484 1.30861 87.1152
lradius 40.9308
lwrist 4.7883
lhand -14.0431 20.8902
lfingers 7.12502
lthumb 12.0875 50.521
rfemur -10.8085 -16.7008 22.6758
rtibia 40.7178
rfoot -18.8674 -16.0463
rtoes 4.83512
lfemur -5.73532 3.93604 -18.6601
ltibia 28.1405
lfoot -15.8477 -6.30026
ltoes 14.1308
